<svg width="19" height="18" viewBox="0 0 19 18" fill="none" xmlns="http://www.w3.org/2000/svg">
<path d="M17.375 9C17.375 13.347 13.8509 16.875 9.5 16.875C5.14906 16.875 1.625 13.347 1.625 9C1.625 4.64906 5.14906 1.125 9.5 1.125C13.8509 1.125 17.375 4.64906 17.375 9Z" fill="#283544"/>
<path d="M13.1912 7.00729C13.1482 7.03238 12.1252 7.56141 12.1252 8.73444C12.1734 10.0722 13.4162 10.5413 13.4375 10.5413C13.4162 10.5664 13.2499 11.1804 12.7573 11.824C12.3663 12.3785 11.9324 12.9375 11.2734 12.9375C10.6467 12.9375 10.4217 12.568 9.69845 12.568C8.92175 12.568 8.70198 12.9375 8.10736 12.9375C7.44845 12.9375 6.98236 12.3486 6.5701 11.7993C6.03449 11.0805 5.57925 9.95237 5.56318 8.86922C5.55235 8.29524 5.67044 7.731 5.9702 7.25181C6.39331 6.58271 7.14864 6.12855 7.97354 6.11359C8.60557 6.09373 9.16807 6.51797 9.55377 6.51797C9.92345 6.51797 10.6145 6.11359 11.3964 6.11359C11.7339 6.11392 12.6339 6.20865 13.1912 7.00729ZM9.50034 5.99901C9.38784 5.47483 9.69845 4.95067 9.98774 4.61631C10.3574 4.21195 10.9412 3.9375 11.4446 3.9375C11.4768 4.46167 11.2731 4.97573 10.9091 5.35014C10.5824 5.75449 10.0199 6.05891 9.50034 5.99901Z" fill="white"/>
</svg>
