<svg width="24" height="24" viewBox="0 0 24 24" xmlns="http://www.w3.org/2000/svg">
<path d="M12.6617 15.3451V13.644H13.2287V15.3451H17.9067V17.0462H7.7002V15.3451H12.6617Z" />
<path d="M16.7726 17.8967H8.83425L9.68479 23H11.9529C11.9529 22.433 12.123 21.2989 12.8034 21.2989C13.4839 21.2989 13.654 22.433 13.654 23H15.9221L16.7726 17.8967Z" />
<path d="M12.6617 15.3451V13.644H13.2287V15.3451H17.9067V17.0462H7.7002V15.3451H12.6617Z" stroke-width="0.1"/>
<path d="M16.7726 17.8967H8.83425L9.68479 23H11.9529C11.9529 22.433 12.123 21.2989 12.8034 21.2989C13.4839 21.2989 13.654 22.433 13.654 23H15.9221L16.7726 17.8967Z"  stroke-width="0.1"/>
<path fill-rule="evenodd" clip-rule="evenodd" d="M4.44026 3.86284L17.7654 1.0277C18.4269 0.933198 19.8067 1.0277 20.0335 2.16176C20.2603 3.29581 21.2621 7.83203 21.7346 9.95839C21.8291 10.3364 21.5645 11.1775 19.75 11.5177C17.9355 11.8579 7.27539 14.2111 6.85012 14.3528C6.42485 14.4946 5.11002 14.2429 4.72377 12.7935C4.33752 11.3442 3.02269 5.84744 3.02269 5.84744C2.92819 5.30655 3.07939 4.15239 4.44026 3.86284ZM17.0566 2.44526L5.71608 4.85512L7.55892 12.6517L12.5204 11.5974L13.0874 11.4769L18.8995 10.2419L17.0566 2.44526Z" />
<path d="M17.7654 1.0277L17.7583 0.978092L17.755 0.978798L17.7654 1.0277ZM4.44026 3.86284L4.45066 3.91175L4.44026 3.86284ZM20.0335 2.16176L19.9845 2.17156L20.0335 2.16176ZM21.7346 9.95839L21.6858 9.96924L21.6861 9.97051L21.7346 9.95839ZM6.85012 14.3528L6.86594 14.4003L6.85012 14.3528ZM4.72377 12.7935L4.77209 12.7806L4.72377 12.7935ZM3.02269 5.84744L2.97334 5.85606L2.97406 5.85907L3.02269 5.84744ZM5.71608 4.85512L5.70569 4.80621L5.65566 4.81685L5.66742 4.86662L5.71608 4.85512ZM17.0566 2.44526L17.1053 2.43375L17.094 2.38619L17.0462 2.39635L17.0566 2.44526ZM7.55892 12.6517L7.51026 12.6632L7.52151 12.7108L7.56932 12.7007L7.55892 12.6517ZM12.5204 11.5974L12.51 11.5485L12.5204 11.5974ZM13.0874 11.4769L13.0978 11.5258L13.0874 11.4769ZM18.8995 10.2419L18.9099 10.2908L18.9599 10.2802L18.9481 10.2304L18.8995 10.2419ZM17.755 0.978798L4.42985 3.81394L4.45066 3.91175L17.7758 1.07661L17.755 0.978798ZM20.0825 2.15195C19.9645 1.56192 19.5453 1.24388 19.0784 1.08664C18.6131 0.929905 18.0945 0.930187 17.7583 0.978206L17.7725 1.0772C18.0979 1.03071 18.5999 1.031 19.0465 1.18141C19.4916 1.3313 19.8757 1.62754 19.9845 2.17156L20.0825 2.15195ZM21.7834 9.94754C21.3108 7.82085 20.3092 3.28534 20.0825 2.15195L19.9845 2.17156C20.2114 3.30629 21.2133 7.84322 21.6858 9.96923L21.7834 9.94754ZM19.7592 11.5669C20.6726 11.3956 21.2037 11.0969 21.4947 10.7864C21.7859 10.4756 21.835 10.1538 21.7831 9.94626L21.6861 9.97051C21.7287 10.141 21.6927 10.4288 21.4217 10.718C21.1503 11.0077 20.6419 11.2996 19.7408 11.4686L19.7592 11.5669ZM6.86594 14.4003C6.91628 14.3835 7.12619 14.3319 7.46349 14.253C7.79904 14.1744 8.25728 14.0696 8.801 13.9467C9.88842 13.7008 11.3174 13.3828 12.7899 13.0585C15.7352 12.4099 18.8529 11.7368 19.7592 11.5669L19.7408 11.4686C18.8326 11.6389 15.713 12.3124 12.7684 12.9609C11.2958 13.2852 9.86661 13.6032 8.77895 13.8491C8.23514 13.9721 7.77661 14.077 7.4407 14.1556C7.10653 14.2338 6.89028 14.2868 6.83431 14.3054L6.86594 14.4003ZM4.67546 12.8064C4.87241 13.5454 5.30733 13.9816 5.74903 14.2141C5.96941 14.3301 6.19127 14.3953 6.3859 14.4223C6.57952 14.4493 6.74983 14.439 6.86594 14.4003L6.83431 14.3054C6.73779 14.3376 6.58426 14.349 6.39968 14.3233C6.21609 14.2978 6.00537 14.236 5.7956 14.1256C5.37701 13.9053 4.96139 13.491 4.77209 12.7806L4.67546 12.8064ZM3.02269 5.84744C2.97406 5.85907 2.97407 5.85909 2.97408 5.85913C2.97409 5.85917 2.9741 5.85924 2.97412 5.85932C2.97416 5.85949 2.97422 5.85974 2.9743 5.86007C2.97446 5.86074 2.9747 5.86174 2.97502 5.86306C2.97565 5.86571 2.9766 5.86966 2.97785 5.87489C2.98035 5.88533 2.98406 5.90086 2.98892 5.92116C2.99865 5.96178 3.01296 6.02154 3.03132 6.09811C3.06803 6.25125 3.1209 6.47164 3.18555 6.74063C3.31486 7.27862 3.49129 8.01104 3.67979 8.78876C4.05673 10.3439 4.48215 12.0811 4.67546 12.8064L4.77209 12.7806C4.57914 12.0567 4.15402 10.3208 3.77698 8.7652C3.58849 7.98756 3.41208 7.25521 3.28278 6.71726C3.21814 6.44829 3.16527 6.22792 3.12856 6.0748C3.11021 5.99824 3.0959 5.93849 3.08618 5.89788C3.08131 5.87757 3.0776 5.86205 3.0751 5.85161C3.07385 5.84639 3.0729 5.84244 3.07227 5.83979C3.07196 5.83847 3.07172 5.83747 3.07156 5.83681C3.07148 5.83647 3.07142 5.83622 3.07138 5.83605C3.07136 5.83597 3.07134 5.83591 3.07133 5.83587C3.07132 5.83583 3.07132 5.8358 3.02269 5.84744ZM4.42985 3.81394C3.73465 3.96185 3.34394 4.33247 3.14099 4.73853C2.93925 5.14216 2.9247 5.57711 2.97344 5.85604L3.07194 5.83883C3.02617 5.57687 3.03998 5.1643 3.23043 4.78324C3.41968 4.40461 3.785 4.05338 4.45066 3.91175L4.42985 3.81394ZM5.72648 4.90403L17.067 2.49416L17.0462 2.39635L5.70569 4.80621L5.72648 4.90403ZM7.60758 12.6402L5.76474 4.84362L5.66742 4.86662L7.51026 12.6632L7.60758 12.6402ZM12.51 11.5485L7.54853 12.6028L7.56932 12.7007L12.5308 11.6463L12.51 11.5485ZM13.077 11.428L12.51 11.5485L12.5308 11.6463L13.0978 11.5258L13.077 11.428ZM18.8891 10.193L13.077 11.428L13.0978 11.5258L18.9099 10.2908L18.8891 10.193ZM17.008 2.45676L18.8508 10.2534L18.9481 10.2304L17.1053 2.43375L17.008 2.45676Z" />
<path d="M12.9229 4.40234C13.3009 4.4496 13.7086 4.82761 13.8119 5.98937C13.8119 6.5287 13.8119 7.23748 13.2449 7.69046V11.4771L12.6778 11.5976V7.69046C12.2141 7.37924 11.9691 6.5564 11.9691 5.98937C11.9691 4.82761 12.5449 4.4496 12.9229 4.40234Z" />
<path d="M11.5438 9.67505C10.8633 8.88121 9.65369 8.68275 9.27567 8.82451C8.99216 9.01352 8.99216 10.2421 10.1262 10.9509C10.5774 11.2328 11.8273 11.3761 11.9691 11.2344C12.1108 10.6673 11.7328 9.86406 11.5438 9.67505Z" />
<path d="M14.1987 8.08802C14.7658 7.40759 15.569 7.42649 15.8998 7.52099C16.0416 7.71 16.08 8.20078 15.513 9.10802C15.0877 9.67505 13.9253 10.2421 13.8119 9.10802C13.7727 8.71619 14.0097 8.37154 14.1987 8.08802Z" />
<path d="M12.6778 7.69046C12.2141 7.37924 11.9691 6.5564 11.9691 5.98937C11.9691 4.82761 12.5449 4.4496 12.9229 4.40234C13.3009 4.4496 13.7086 4.82761 13.8119 5.98937C13.8119 6.5287 13.8119 7.23748 13.2449 7.69046M12.6778 7.69046V11.5976L13.2449 11.4771V7.69046M12.6778 7.69046H13.2449M9.27567 8.82451C9.65369 8.68275 10.8633 8.88121 11.5438 9.67505C11.7328 9.86406 12.1108 10.6673 11.9691 11.2344C11.8273 11.3761 10.5774 11.2328 10.1262 10.9509C8.99216 10.2421 8.99216 9.01352 9.27567 8.82451ZM15.8998 7.52099C15.569 7.42649 14.7658 7.40759 14.1987 8.08802C14.0097 8.37154 13.7727 8.71619 13.8119 9.10802C13.9253 10.2421 15.0877 9.67505 15.513 9.10802C16.08 8.20078 16.0416 7.71 15.8998 7.52099Z"  stroke-width="0.1"/>
</svg>
