<svg width="24" height="24" viewBox="0 0 24 24"  xmlns="http://www.w3.org/2000/svg">
<g clip-path="url(#clip0_11_1757)">
<path d="M11.9995 8C13.0995 8 13.9995 7.1 13.9995 6C13.9995 4.9 13.0995 4 11.9995 4C10.8995 4 9.99951 4.9 9.99951 6C9.99951 7.1 10.8995 8 11.9995 8ZM11.9995 10C10.8995 10 9.99951 10.9 9.99951 12C9.99951 13.1 10.8995 14 11.9995 14C13.0995 14 13.9995 13.1 13.9995 12C13.9995 10.9 13.0995 10 11.9995 10ZM11.9995 16C10.8995 16 9.99951 16.9 9.99951 18C9.99951 19.1 10.8995 20 11.9995 20C13.0995 20 13.9995 19.1 13.9995 18C13.9995 16.9 13.0995 16 11.9995 16Z" fill="#C2C7CF"/>
</g>
<defs>
<clipPath id="clip0_11_1757">
<rect width="24" height="24" fill="white" transform="translate(-0.000488281)"/>
</clipPath>
</defs>
</svg>
