<svg width="852" height="1101" viewBox="0 0 852 1101" fill="none" xmlns="http://www.w3.org/2000/svg">
<g clip-path="url(#clip0_1_5559)">
<path d="M382 530L434 465L373 471L382 530Z" fill="#072A45" stroke="#072A45" stroke-linejoin="bevel"/>
<path d="M382 530L475 533L434 465L382 530Z" fill="#173E5F" stroke="#173E5F" stroke-linejoin="bevel"/>
<path d="M431 632L515 547L475 533L431 632Z" fill="#03233C" stroke="#03233C" stroke-linejoin="bevel"/>
<path d="M475 533L569 448L434 465L475 533Z" fill="#31628D" stroke="#31628D" stroke-linejoin="bevel"/>
<path d="M237 584L387 631L382 530L237 584Z" fill="#27537A" stroke="#27537A" stroke-linejoin="bevel"/>
<path d="M382 530L431 632L475 533L382 530Z" fill="#173E5F" stroke="#173E5F" stroke-linejoin="bevel"/>
<path d="M387 631L431 632L382 530L387 631Z" fill="#123756" stroke="#123756" stroke-linejoin="bevel"/>
<path d="M565 408L441 358L434 465L565 408Z" fill="#173E5F" stroke="#173E5F" stroke-linejoin="bevel"/>
<path d="M434 465L441 358L373 471L434 465Z" fill="#072A45" stroke="#072A45" stroke-linejoin="bevel"/>
<path d="M336 335L267 465L373 471L336 335Z" fill="#123756" stroke="#123756" stroke-linejoin="bevel"/>
<path d="M373 471L267 465L382 530L373 471Z" fill="#214C71" stroke="#214C71" stroke-linejoin="bevel"/>
<path d="M515 547L569 448L475 533L515 547Z" fill="#173E5F" stroke="#173E5F" stroke-linejoin="bevel"/>
<path d="M441 358L336 335L373 471L441 358Z" fill="#1C4568" stroke="#1C4568" stroke-linejoin="bevel"/>
<path d="M569 448L565 408L434 465L569 448Z" fill="#27537A" stroke="#27537A" stroke-linejoin="bevel"/>
<path d="M267 465L237 584L382 530L267 465Z" fill="#27537A" stroke="#27537A" stroke-linejoin="bevel"/>
<path d="M537 298L423 283L441 358L537 298Z" fill="#27537A" stroke="#27537A" stroke-linejoin="bevel"/>
<path d="M441 358L423 283L336 335L441 358Z" fill="#27537A" stroke="#27537A" stroke-linejoin="bevel"/>
<path d="M237 584L269 665L387 631L237 584Z" fill="#123756" stroke="#123756" stroke-linejoin="bevel"/>
<path d="M387 631L350 783L431 632L387 631Z" fill="#03233C" stroke="#03233C" stroke-linejoin="bevel"/>
<path d="M423 283L321 276L336 335L423 283Z" fill="#31628D" stroke="#31628D" stroke-linejoin="bevel"/>
<path d="M336 335L216 340L267 465L336 335Z" fill="#173E5F" stroke="#173E5F" stroke-linejoin="bevel"/>
<path d="M583 677L622 595L515 547L583 677Z" fill="#173E5F" stroke="#173E5F" stroke-linejoin="bevel"/>
<path d="M515 547L622 595L569 448L515 547Z" fill="#123756" stroke="#123756" stroke-linejoin="bevel"/>
<path d="M569 448L669 381L565 408L569 448Z" fill="#27537A" stroke="#27537A" stroke-linejoin="bevel"/>
<path d="M583 677L515 547L431 632L583 677Z" fill="#214C71" stroke="#214C71" stroke-linejoin="bevel"/>
<path d="M624 273L537 298L565 408L624 273Z" fill="#1C4568" stroke="#1C4568" stroke-linejoin="bevel"/>
<path d="M565 408L537 298L441 358L565 408Z" fill="#2C5B84" stroke="#2C5B84" stroke-linejoin="bevel"/>
<path d="M321 276L216 340L336 335L321 276Z" fill="#123756" stroke="#123756" stroke-linejoin="bevel"/>
<path d="M267 465L124 494L237 584L267 465Z" fill="#0D304D" stroke="#0D304D" stroke-linejoin="bevel"/>
<path d="M542 759L583 677L431 632L542 759Z" fill="#173E5F" stroke="#173E5F" stroke-linejoin="bevel"/>
<path d="M622 595L663 482L569 448L622 595Z" fill="#072A45" stroke="#072A45" stroke-linejoin="bevel"/>
<path d="M134 269L180 342L216 340L134 269Z" fill="#2C5B84" stroke="#2C5B84" stroke-linejoin="bevel"/>
<path d="M216 340L180 342L267 465L216 340Z" fill="#2C5B84" stroke="#2C5B84" stroke-linejoin="bevel"/>
<path d="M180 342L124 494L267 465L180 342Z" fill="#03233C" stroke="#03233C" stroke-linejoin="bevel"/>
<path d="M128 657L212 738L269 665L128 657Z" fill="#1C4568" stroke="#1C4568" stroke-linejoin="bevel"/>
<path d="M124 494L130 561L237 584L124 494Z" fill="#072A45" stroke="#072A45" stroke-linejoin="bevel"/>
<path d="M321 276L261 251L216 340L321 276Z" fill="#27537A" stroke="#27537A" stroke-linejoin="bevel"/>
<path d="M290 172L261 251L321 276L290 172Z" fill="#31628D" stroke="#31628D" stroke-linejoin="bevel"/>
<path d="M290 172L321 276L382 145L290 172Z" fill="#173E5F" stroke="#173E5F" stroke-linejoin="bevel"/>
<path d="M663 482L669 381L569 448L663 482Z" fill="#2C5B84" stroke="#2C5B84" stroke-linejoin="bevel"/>
<path d="M583 677L640 669L622 595L583 677Z" fill="#072A45" stroke="#072A45" stroke-linejoin="bevel"/>
<path d="M622 595L737 493L663 482L622 595Z" fill="#173E5F" stroke="#173E5F" stroke-linejoin="bevel"/>
<path d="M212 738L350 783L269 665L212 738Z" fill="#27537A" stroke="#27537A" stroke-linejoin="bevel"/>
<path d="M269 665L350 783L387 631L269 665Z" fill="#214C71" stroke="#214C71" stroke-linejoin="bevel"/>
<path d="M583 677L648 729L640 669L583 677Z" fill="#072A45" stroke="#072A45" stroke-linejoin="bevel"/>
<path d="M469 807L542 759L431 632L469 807Z" fill="#31628D" stroke="#31628D" stroke-linejoin="bevel"/>
<path d="M128 657L269 665L237 584L128 657Z" fill="#001D34" stroke="#001D34" stroke-linejoin="bevel"/>
<path d="M669 381L624 273L565 408L669 381Z" fill="#03233C" stroke="#03233C" stroke-linejoin="bevel"/>
<path d="M537 298L455 153L423 283L537 298Z" fill="#2C5B84" stroke="#2C5B84" stroke-linejoin="bevel"/>
<path d="M350 783L469 807L431 632L350 783Z" fill="#173E5F" stroke="#173E5F" stroke-linejoin="bevel"/>
<path d="M130 561L128 657L237 584L130 561Z" fill="#214C71" stroke="#214C71" stroke-linejoin="bevel"/>
<path d="M19 587L128 657L130 561L19 587Z" fill="#31628D" stroke="#31628D" stroke-linejoin="bevel"/>
<path d="M663 482L737 493L669 381L663 482Z" fill="#173E5F" stroke="#173E5F" stroke-linejoin="bevel"/>
<path d="M751 238L616 165L624 273L751 238Z" fill="#173E5F" stroke="#173E5F" stroke-linejoin="bevel"/>
<path d="M771 581L737 493L622 595L771 581Z" fill="#0D304D" stroke="#0D304D" stroke-linejoin="bevel"/>
<path d="M542 759L648 729L583 677L542 759Z" fill="#2C5B84" stroke="#2C5B84" stroke-linejoin="bevel"/>
<path d="M640 669L735 629L622 595L640 669Z" fill="#173E5F" stroke="#173E5F" stroke-linejoin="bevel"/>
<path d="M612 866L648 729L542 759L612 866Z" fill="#001D34" stroke="#001D34" stroke-linejoin="bevel"/>
<path d="M382 145L321 276L423 283L382 145Z" fill="#214C71" stroke="#214C71" stroke-linejoin="bevel"/>
<path d="M261 251L134 269L216 340L261 251Z" fill="#214C71" stroke="#214C71" stroke-linejoin="bevel"/>
<path d="M591 142L455 153L537 298L591 142Z" fill="#03233C" stroke="#03233C" stroke-linejoin="bevel"/>
<path d="M455 153L382 145L423 283L455 153Z" fill="#2C5B84" stroke="#2C5B84" stroke-linejoin="bevel"/>
<path d="M143 171L134 269L261 251L143 171Z" fill="#001D34" stroke="#001D34" stroke-linejoin="bevel"/>
<path d="M180 342L56 349L124 494L180 342Z" fill="#214C71" stroke="#214C71" stroke-linejoin="bevel"/>
<path d="M729 732L735 629L640 669L729 732Z" fill="#03233C" stroke="#03233C" stroke-linejoin="bevel"/>
<path d="M128 657L172 783L212 738L128 657Z" fill="#31628D" stroke="#31628D" stroke-linejoin="bevel"/>
<path d="M212 738L277 883L350 783L212 738Z" fill="#03233C" stroke="#03233C" stroke-linejoin="bevel"/>
<path d="M355 882L477 876L469 807L355 882Z" fill="#0D304D" stroke="#0D304D" stroke-linejoin="bevel"/>
<path d="M735 629L771 581L622 595L735 629Z" fill="#0D304D" stroke="#0D304D" stroke-linejoin="bevel"/>
<path d="M134 269L56 349L180 342L134 269Z" fill="#27537A" stroke="#27537A" stroke-linejoin="bevel"/>
<path d="M124 494L19 587L130 561L124 494Z" fill="#123756" stroke="#123756" stroke-linejoin="bevel"/>
<path d="M56 349L32 430L124 494L56 349Z" fill="#1C4568" stroke="#1C4568" stroke-linejoin="bevel"/>
<path d="M128 657L76 742L172 783L128 657Z" fill="#0D304D" stroke="#0D304D" stroke-linejoin="bevel"/>
<path d="M355 882L469 807L350 783L355 882Z" fill="#31628D" stroke="#31628D" stroke-linejoin="bevel"/>
<path d="M469 807L565 859L542 759L469 807Z" fill="#001D34" stroke="#001D34" stroke-linejoin="bevel"/>
<path d="M277 883L355 882L350 783L277 883Z" fill="#31628D" stroke="#31628D" stroke-linejoin="bevel"/>
<path d="M751 238L624 273L669 381L751 238Z" fill="#31628D" stroke="#31628D" stroke-linejoin="bevel"/>
<path d="M624 273L616 165L537 298L624 273Z" fill="#173E5F" stroke="#173E5F" stroke-linejoin="bevel"/>
<path d="M455 153L425 82L382 145L455 153Z" fill="#072A45" stroke="#072A45" stroke-linejoin="bevel"/>
<path d="M787 389L669 381L737 493L787 389Z" fill="#31628D" stroke="#31628D" stroke-linejoin="bevel"/>
<path d="M852 452L787 389L737 493L852 452Z" fill="#001D34" stroke="#001D34" stroke-linejoin="bevel"/>
<path d="M477 876L565 859L469 807L477 876Z" fill="#214C71" stroke="#214C71" stroke-linejoin="bevel"/>
<path d="M648 729L729 732L640 669L648 729Z" fill="#27537A" stroke="#27537A" stroke-linejoin="bevel"/>
<path d="M852 702V582L771 581L852 702Z" fill="#03233C" stroke="#03233C" stroke-linejoin="bevel"/>
<path d="M32 430L19 587L124 494L32 430Z" fill="#173E5F" stroke="#173E5F" stroke-linejoin="bevel"/>
<path d="M616 165L591 142L537 298L616 165Z" fill="#0D304D" stroke="#0D304D" stroke-linejoin="bevel"/>
<path d="M612 866L729 732L648 729L612 866Z" fill="#123756" stroke="#123756" stroke-linejoin="bevel"/>
<path d="M172 783L277 883L212 738L172 783Z" fill="#072A45" stroke="#072A45" stroke-linejoin="bevel"/>
<path d="M15 655L76 742L128 657L15 655Z" fill="#173E5F" stroke="#173E5F" stroke-linejoin="bevel"/>
<path d="M121 941L278 944L277 883L121 941Z" fill="#214C71" stroke="#214C71" stroke-linejoin="bevel"/>
<path d="M532 99L425 82L455 153L532 99Z" fill="#27537A" stroke="#27537A" stroke-linejoin="bevel"/>
<path d="M382 145L319 74L290 172L382 145Z" fill="#27537A" stroke="#27537A" stroke-linejoin="bevel"/>
<path d="M290 172L143 171L261 251L290 172Z" fill="#001D34" stroke="#001D34" stroke-linejoin="bevel"/>
<path d="M591 142L532 99L455 153L591 142Z" fill="#072A45" stroke="#072A45" stroke-linejoin="bevel"/>
<path d="M259 50L143 171L290 172L259 50Z" fill="#1C4568" stroke="#1C4568" stroke-linejoin="bevel"/>
<path d="M134 269L31 299L56 349L134 269Z" fill="#31628D" stroke="#31628D" stroke-linejoin="bevel"/>
<path d="M19 587L15 655L128 657L19 587Z" fill="#1C4568" stroke="#1C4568" stroke-linejoin="bevel"/>
<path d="M565 859L612 866L542 759L565 859Z" fill="#27537A" stroke="#27537A" stroke-linejoin="bevel"/>
<path d="M535 955L612 866L565 859L535 955Z" fill="#001D34" stroke="#001D34" stroke-linejoin="bevel"/>
<path d="M31 191V299L134 269L31 191Z" fill="#173E5F" stroke="#173E5F" stroke-linejoin="bevel"/>
<path d="M56 349L-48 396L32 430L56 349Z" fill="#001D34" stroke="#001D34" stroke-linejoin="bevel"/>
<path d="M32 430L-48 502L19 587L32 430Z" fill="#123756" stroke="#123756" stroke-linejoin="bevel"/>
<path d="M19 587L-48 592L15 655L19 587Z" fill="#072A45" stroke="#072A45" stroke-linejoin="bevel"/>
<path d="M616 165L713 106L591 142L616 165Z" fill="#001D34" stroke="#001D34" stroke-linejoin="bevel"/>
<path d="M591 142L638 29L532 99L591 142Z" fill="#123756" stroke="#123756" stroke-linejoin="bevel"/>
<path d="M787 389L751 238L669 381L787 389Z" fill="#001D34" stroke="#001D34" stroke-linejoin="bevel"/>
<path d="M425 82L319 74L382 145L425 82Z" fill="#123756" stroke="#123756" stroke-linejoin="bevel"/>
<path d="M771 581L852 452L737 493L771 581Z" fill="#1C4568" stroke="#1C4568" stroke-linejoin="bevel"/>
<path d="M787 389L852 367L751 238L787 389Z" fill="#072A45" stroke="#072A45" stroke-linejoin="bevel"/>
<path d="M852 582V452L771 581L852 582Z" fill="#03233C" stroke="#03233C" stroke-linejoin="bevel"/>
<path d="M852 702L771 581L735 629L852 702Z" fill="#0D304D" stroke="#0D304D" stroke-linejoin="bevel"/>
<path d="M-48 396V502L32 430L-48 396Z" fill="#173E5F" stroke="#173E5F" stroke-linejoin="bevel"/>
<path d="M852 452V367L787 389L852 452Z" fill="#123756" stroke="#123756" stroke-linejoin="bevel"/>
<path d="M-48 502V592L19 587L-48 502Z" fill="#2C5B84" stroke="#2C5B84" stroke-linejoin="bevel"/>
<path d="M-48 790L81 843L76 742L-48 790Z" fill="#214C71" stroke="#214C71" stroke-linejoin="bevel"/>
<path d="M31 299L-48 396L56 349L31 299Z" fill="#001D34" stroke="#001D34" stroke-linejoin="bevel"/>
<path d="M113 892L277 883L172 783L113 892Z" fill="#0D304D" stroke="#0D304D" stroke-linejoin="bevel"/>
<path d="M277 883L278 944L355 882L277 883Z" fill="#27537A" stroke="#27537A" stroke-linejoin="bevel"/>
<path d="M438 989L535 955L477 876L438 989Z" fill="#2C5B84" stroke="#2C5B84" stroke-linejoin="bevel"/>
<path d="M477 876L535 955L565 859L477 876Z" fill="#0D304D" stroke="#0D304D" stroke-linejoin="bevel"/>
<path d="M380 -31L259 50L319 74L380 -31Z" fill="#2C5B84" stroke="#2C5B84" stroke-linejoin="bevel"/>
<path d="M319 74L259 50L290 172L319 74Z" fill="#03233C" stroke="#03233C" stroke-linejoin="bevel"/>
<path d="M380 -31L319 74L425 82L380 -31Z" fill="#123756" stroke="#123756" stroke-linejoin="bevel"/>
<path d="M-48 790L76 742L15 655L-48 790Z" fill="#001D34" stroke="#001D34" stroke-linejoin="bevel"/>
<path d="M76 742L81 843L172 783L76 742Z" fill="#072A45" stroke="#072A45" stroke-linejoin="bevel"/>
<path d="M438 989L477 876L355 882L438 989Z" fill="#31628D" stroke="#31628D" stroke-linejoin="bevel"/>
<path d="M852 732V702L729 732H852Z" fill="#072A45" stroke="#072A45" stroke-linejoin="bevel"/>
<path d="M278 944L335 968L355 882L278 944Z" fill="#03233C" stroke="#03233C" stroke-linejoin="bevel"/>
<path d="M-48 592V651L15 655L-48 592Z" fill="#001D34" stroke="#001D34" stroke-linejoin="bevel"/>
<path d="M143 171L31 191L134 269L143 171Z" fill="#27537A" stroke="#27537A" stroke-linejoin="bevel"/>
<path d="M31 299L-48 290V396L31 299Z" fill="#072A45" stroke="#072A45" stroke-linejoin="bevel"/>
<path d="M19 62L31 191L143 171L19 62Z" fill="#0D304D" stroke="#0D304D" stroke-linejoin="bevel"/>
<path d="M729 732L852 702L735 629L729 732Z" fill="#072A45" stroke="#072A45" stroke-linejoin="bevel"/>
<path d="M852 732H729L755 887L852 732Z" fill="#27537A" stroke="#27537A" stroke-linejoin="bevel"/>
<path d="M121 941L113 892L42 993L121 941Z" fill="#173E5F" stroke="#173E5F" stroke-linejoin="bevel"/>
<path d="M81 843L113 892L172 783L81 843Z" fill="#123756" stroke="#123756" stroke-linejoin="bevel"/>
<path d="M219 1035L378 1058L335 968L219 1035Z" fill="#03233C" stroke="#03233C" stroke-linejoin="bevel"/>
<path d="M335 968L438 989L355 882L335 968Z" fill="#001D34" stroke="#001D34" stroke-linejoin="bevel"/>
<path d="M778 164L713 106L751 238L778 164Z" fill="#0D304D" stroke="#0D304D" stroke-linejoin="bevel"/>
<path d="M751 238L713 106L616 165L751 238Z" fill="#214C71" stroke="#214C71" stroke-linejoin="bevel"/>
<path d="M462 -31H380L425 82L462 -31Z" fill="#27537A" stroke="#27537A" stroke-linejoin="bevel"/>
<path d="M852 187L778 164L751 238L852 187Z" fill="#173E5F" stroke="#173E5F" stroke-linejoin="bevel"/>
<path d="M31 191L-48 290L31 299V191Z" fill="#0D304D" stroke="#0D304D" stroke-linejoin="bevel"/>
<path d="M755 887L729 732L612 866L755 887Z" fill="#0D304D" stroke="#0D304D" stroke-linejoin="bevel"/>
<path d="M852 367V243L751 238L852 367Z" fill="#123756" stroke="#123756" stroke-linejoin="bevel"/>
<path d="M664 -31L638 29L722 -31H664Z" fill="#31628D" stroke="#31628D" stroke-linejoin="bevel"/>
<path d="M713 106L638 29L591 142L713 106Z" fill="#1C4568" stroke="#1C4568" stroke-linejoin="bevel"/>
<path d="M745 930L755 887L612 866L745 930Z" fill="#0D304D" stroke="#0D304D" stroke-linejoin="bevel"/>
<path d="M629 983L612 866L535 955L629 983Z" fill="#31628D" stroke="#31628D" stroke-linejoin="bevel"/>
<path d="M462 -31L425 82L532 99L462 -31Z" fill="#2C5B84" stroke="#2C5B84" stroke-linejoin="bevel"/>
<path d="M259 50L140 31L143 171L259 50Z" fill="#0D304D" stroke="#0D304D" stroke-linejoin="bevel"/>
<path d="M42 993L113 892L81 843L42 993Z" fill="#214C71" stroke="#214C71" stroke-linejoin="bevel"/>
<path d="M113 892L121 941L277 883L113 892Z" fill="#0D304D" stroke="#0D304D" stroke-linejoin="bevel"/>
<path d="M335 968L378 1058L438 989L335 968Z" fill="#27537A" stroke="#27537A" stroke-linejoin="bevel"/>
<path d="M575 -31H462L532 99L575 -31Z" fill="#03233C" stroke="#03233C" stroke-linejoin="bevel"/>
<path d="M513 1076L629 983L535 955L513 1076Z" fill="#31628D" stroke="#31628D" stroke-linejoin="bevel"/>
<path d="M239 -31L140 31L259 50L239 -31Z" fill="#001D34" stroke="#001D34" stroke-linejoin="bevel"/>
<path d="M31 191L-48 193V290L31 191Z" fill="#123756" stroke="#123756" stroke-linejoin="bevel"/>
<path d="M-48 651V790L15 655L-48 651Z" fill="#0D304D" stroke="#0D304D" stroke-linejoin="bevel"/>
<path d="M852 243V187L751 238L852 243Z" fill="#1C4568" stroke="#1C4568" stroke-linejoin="bevel"/>
<path d="M778 164L852 101L713 106L778 164Z" fill="#173E5F" stroke="#173E5F" stroke-linejoin="bevel"/>
<path d="M19 62L-48 193L31 191L19 62Z" fill="#2C5B84" stroke="#2C5B84" stroke-linejoin="bevel"/>
<path d="M629 983L745 930L612 866L629 983Z" fill="#214C71" stroke="#214C71" stroke-linejoin="bevel"/>
<path d="M755 887L852 886V732L755 887Z" fill="#2C5B84" stroke="#2C5B84" stroke-linejoin="bevel"/>
<path d="M380 -31H239L259 50L380 -31Z" fill="#31628D" stroke="#31628D" stroke-linejoin="bevel"/>
<path d="M664 -31H575L638 29L664 -31Z" fill="#0D304D" stroke="#0D304D" stroke-linejoin="bevel"/>
<path d="M638 29L575 -31L532 99L638 29Z" fill="#123756" stroke="#123756" stroke-linejoin="bevel"/>
<path d="M219 1035L335 968L278 944L219 1035Z" fill="#173E5F" stroke="#173E5F" stroke-linejoin="bevel"/>
<path d="M438 989L513 1076L535 955L438 989Z" fill="#123756" stroke="#123756" stroke-linejoin="bevel"/>
<path d="M378 1058L458 1062L438 989L378 1058Z" fill="#001D34" stroke="#001D34" stroke-linejoin="bevel"/>
<path d="M629 983L728 1043L745 930L629 983Z" fill="#0D304D" stroke="#0D304D" stroke-linejoin="bevel"/>
<path d="M121 941L219 1035L278 944L121 941Z" fill="#27537A" stroke="#27537A" stroke-linejoin="bevel"/>
<path d="M122 1068L219 1035L121 941L122 1068Z" fill="#123756" stroke="#123756" stroke-linejoin="bevel"/>
<path d="M30 -31L19 62L140 31L30 -31Z" fill="#03233C" stroke="#03233C" stroke-linejoin="bevel"/>
<path d="M140 31L19 62L143 171L140 31Z" fill="#214C71" stroke="#214C71" stroke-linejoin="bevel"/>
<path d="M239 -31H156L140 31L239 -31Z" fill="#214C71" stroke="#214C71" stroke-linejoin="bevel"/>
<path d="M722 -31L638 29L713 106L722 -31Z" fill="#173E5F" stroke="#173E5F" stroke-linejoin="bevel"/>
<path d="M-48 790V872L81 843L-48 790Z" fill="#214C71" stroke="#214C71" stroke-linejoin="bevel"/>
<path d="M413 1169L513 1076L458 1062L413 1169Z" fill="#27537A" stroke="#27537A" stroke-linejoin="bevel"/>
<path d="M458 1062L513 1076L438 989L458 1062Z" fill="#072A45" stroke="#072A45" stroke-linejoin="bevel"/>
<path d="M852 955L755 887L745 930L852 955Z" fill="#214C71" stroke="#214C71" stroke-linejoin="bevel"/>
<path d="M852 955V886L755 887L852 955Z" fill="#173E5F" stroke="#173E5F" stroke-linejoin="bevel"/>
<path d="M852 187V101L778 164L852 187Z" fill="#27537A" stroke="#27537A" stroke-linejoin="bevel"/>
<path d="M852 101L722 -31L713 106L852 101Z" fill="#123756" stroke="#123756" stroke-linejoin="bevel"/>
<path d="M-48 872L42 993L81 843L-48 872Z" fill="#1C4568" stroke="#1C4568" stroke-linejoin="bevel"/>
<path d="M630 1097L728 1043L629 983L630 1097Z" fill="#214C71" stroke="#214C71" stroke-linejoin="bevel"/>
<path d="M356 1169H413L378 1058L356 1169Z" fill="#0D304D" stroke="#0D304D" stroke-linejoin="bevel"/>
<path d="M378 1058L413 1169L458 1062L378 1058Z" fill="#31628D" stroke="#31628D" stroke-linejoin="bevel"/>
<path d="M42 993L122 1068L121 941L42 993Z" fill="#03233C" stroke="#03233C" stroke-linejoin="bevel"/>
<path d="M728 1043L852 955L745 930L728 1043Z" fill="#214C71" stroke="#214C71" stroke-linejoin="bevel"/>
<path d="M30 -31L-48 44L19 62L30 -31Z" fill="#173E5F" stroke="#173E5F" stroke-linejoin="bevel"/>
<path d="M19 62L-48 44V193L19 62Z" fill="#0D304D" stroke="#0D304D" stroke-linejoin="bevel"/>
<path d="M573 1169L630 1097L513 1076L573 1169Z" fill="#072A45" stroke="#072A45" stroke-linejoin="bevel"/>
<path d="M513 1076L630 1097L629 983L513 1076Z" fill="#173E5F" stroke="#173E5F" stroke-linejoin="bevel"/>
<path d="M156 -31H30L140 31L156 -31Z" fill="#0D304D" stroke="#0D304D" stroke-linejoin="bevel"/>
<path d="M-48 872V982L42 993L-48 872Z" fill="#1C4568" stroke="#1C4568" stroke-linejoin="bevel"/>
<path d="M42 993L55 1066L122 1068L42 993Z" fill="#03233C" stroke="#03233C" stroke-linejoin="bevel"/>
<path d="M-48 1058L55 1066L42 993L-48 1058Z" fill="#001D34" stroke="#001D34" stroke-linejoin="bevel"/>
<path d="M356 1169L378 1058L251 1169H356Z" fill="#214C71" stroke="#214C71" stroke-linejoin="bevel"/>
<path d="M378 1058L219 1035L251 1169L378 1058Z" fill="#27537A" stroke="#27537A" stroke-linejoin="bevel"/>
<path d="M251 1169L219 1035L155 1169H251Z" fill="#123756" stroke="#123756" stroke-linejoin="bevel"/>
<path d="M852 101V-31H722L852 101Z" fill="#001D34" stroke="#001D34" stroke-linejoin="bevel"/>
<path d="M155 1169L219 1035L122 1068L155 1169Z" fill="#214C71" stroke="#214C71" stroke-linejoin="bevel"/>
<path d="M413 1169H573L513 1076L413 1169Z" fill="#2C5B84" stroke="#2C5B84" stroke-linejoin="bevel"/>
<path d="M790 1169L852 1040L728 1043L790 1169Z" fill="#123756" stroke="#123756" stroke-linejoin="bevel"/>
<path d="M728 1043L852 1040V955L728 1043Z" fill="#2C5B84" stroke="#2C5B84" stroke-linejoin="bevel"/>
<path d="M30 -31H-48V44L30 -31Z" fill="#1C4568" stroke="#1C4568" stroke-linejoin="bevel"/>
<path d="M646 1169L728 1043L630 1097L646 1169Z" fill="#072A45" stroke="#072A45" stroke-linejoin="bevel"/>
<path d="M573 1169H646L630 1097L573 1169Z" fill="#214C71" stroke="#214C71" stroke-linejoin="bevel"/>
<path d="M73 1169H155L122 1068L73 1169Z" fill="#173E5F" stroke="#173E5F" stroke-linejoin="bevel"/>
<path d="M73 1169L122 1068L55 1066L73 1169Z" fill="#1C4568" stroke="#1C4568" stroke-linejoin="bevel"/>
<path d="M-48 982V1058L42 993L-48 982Z" fill="#27537A" stroke="#27537A" stroke-linejoin="bevel"/>
<path d="M-48 1169H73L55 1066L-48 1169Z" fill="#27537A" stroke="#27537A" stroke-linejoin="bevel"/>
<path d="M646 1169H790L728 1043L646 1169Z" fill="#123756" stroke="#123756" stroke-linejoin="bevel"/>
<path d="M790 1169H852V1040L790 1169Z" fill="#03233C" stroke="#03233C" stroke-linejoin="bevel"/>
<path d="M-48 1058V1169L55 1066L-48 1058Z" fill="#0D304D" stroke="#0D304D" stroke-linejoin="bevel"/>
</g>
<defs>
<clipPath id="clip0_1_5559">
<rect width="900" height="1200" fill="white" transform="translate(-48 -31)"/>
</clipPath>
</defs>
</svg>
